<svg width="19" height="19" viewBox="0 0 19 19" fill="none" xmlns="http://www.w3.org/2000/svg">
<g clip-path="url(#clip0_2003_1165)">
<path d="M1.8799 9.19241C1.87989 8.95769 1.95642 8.7638 2.10955 8.61067C2.26337 8.45685 2.45766 8.37991 2.69239 8.37991L8.37989 8.37991L8.37989 2.69241C8.37988 2.45769 8.4568 2.26378 8.61064 2.11066C8.76375 1.95684 8.95766 1.87991 9.19239 1.87991C9.42711 1.87992 9.62139 1.95683 9.77522 2.11067C9.92833 2.26377 10.0049 2.45769 10.0049 2.69241L10.0049 8.37991L15.6924 8.37991C15.9271 8.37992 16.121 8.45684 16.2741 8.61064C16.428 8.76379 16.5049 8.95772 16.5049 9.19244C16.5049 9.42716 16.428 9.62143 16.2742 9.77526C16.121 9.92837 15.9271 10.0049 15.6924 10.0049L10.0049 10.0049L10.0049 15.6924C10.0049 15.9272 9.92835 16.1214 9.77522 16.2753C9.6214 16.4283 9.42713 16.5049 9.19242 16.5049C8.95771 16.5049 8.76375 16.4283 8.61062 16.2752C8.4568 16.1214 8.37991 15.9271 8.3799 15.6924L8.37989 10.0049L2.6924 10.0049C2.45768 10.0049 2.26336 9.92839 2.10958 9.77523C1.95641 9.62144 1.87991 9.42713 1.8799 9.19241Z" fill="#00473C"/>
</g>
<defs>
<clipPath id="clip0_2003_1165">
<rect width="13" height="13" fill="white" transform="translate(9.19239) rotate(45)"/>
</clipPath>
</defs>
</svg>
