<svg width="13" height="13" viewBox="0 0 13 13" fill="none" xmlns="http://www.w3.org/2000/svg">
<path d="M1.32904 11.6707C1.16306 11.5047 1.08008 11.3135 1.08008 11.097C1.08008 10.8794 1.16306 10.6876 1.32904 10.5217L5.35071 6.5L1.32904 2.47833C1.16306 2.31236 1.08033 2.12085 1.08084 1.90381C1.08033 1.68677 1.16306 1.49526 1.32904 1.32928C1.49502 1.16331 1.68678 1.08032 1.90433 1.08032C2.12086 1.08032 2.31211 1.16331 2.47809 1.32928L6.49976 5.35095L10.5214 1.32928C10.6874 1.16331 10.8789 1.08058 11.0959 1.08109C11.313 1.08058 11.5045 1.16331 11.6705 1.32928C11.8365 1.49526 11.9195 1.68702 11.9195 1.90457C11.9195 2.1211 11.8365 2.31236 11.6705 2.47833L7.6488 6.5L11.6705 10.5217C11.8365 10.6876 11.9197 10.8791 11.9202 11.0962C11.9197 11.3132 11.8365 11.5047 11.6705 11.6707C11.5045 11.8367 11.3132 11.9197 11.0967 11.9197C10.8791 11.9197 10.6874 11.8367 10.5214 11.6707L6.49976 7.64905L2.47809 11.6707C2.31211 11.8367 2.12061 11.92 1.90356 11.9204C1.68652 11.92 1.49502 11.8367 1.32904 11.6707Z" fill="#00473C"/>
</svg>
