<svg width="26" height="26" viewBox="0 0 26 26" fill="none" xmlns="http://www.w3.org/2000/svg">
<circle cx="12.6547" cy="12.6547" r="12.6547" fill="white"/>
<path d="M17.4625 9.13635C16.6419 8.80699 15.7761 8.57192 14.8865 8.437C14.8785 8.43582 14.8702 8.43684 14.8628 8.43994C14.8555 8.44304 14.8494 8.44805 14.8454 8.4543C14.7339 8.62723 14.6105 8.85343 14.5243 9.03052C13.5654 8.90324 12.59 8.90324 11.6311 9.03052C11.535 8.83325 11.4262 8.64087 11.3053 8.4543C11.3012 8.44812 11.2951 8.44316 11.2878 8.44007C11.2804 8.43699 11.2722 8.43592 11.2642 8.437C10.3744 8.5712 9.50834 8.80639 8.68816 9.13635C8.68115 9.13869 8.67528 9.1431 8.67156 9.1488C7.03121 11.2925 6.58118 13.3836 6.80185 15.4485C6.80264 15.4582 6.80975 15.4678 6.81845 15.4741C7.77365 16.0929 8.84207 16.5654 9.97814 16.8714C9.98616 16.8736 9.99478 16.8735 10.0027 16.8711C10.0107 16.8688 10.0176 16.8643 10.0224 16.8582C10.266 16.5677 10.4827 16.2613 10.6694 15.9389C10.6733 15.9323 10.6746 15.9247 10.6732 15.9174C10.6718 15.91 10.6677 15.9032 10.6615 15.8981C10.6574 15.8947 10.6525 15.8921 10.6472 15.8905C10.3065 15.776 9.97647 15.6383 9.66019 15.4789C9.65136 15.4745 9.64479 15.4673 9.64184 15.4588C9.6389 15.4503 9.6398 15.4412 9.64437 15.4333C9.64706 15.4281 9.65113 15.4236 9.65624 15.4201C9.72267 15.3765 9.78911 15.3309 9.85238 15.2852C9.85797 15.2813 9.86468 15.2788 9.87178 15.2779C9.87889 15.2771 9.88613 15.2779 9.89272 15.2804C11.9641 16.1077 14.2063 16.1077 16.2524 15.2804C16.2593 15.2778 16.2668 15.2769 16.2741 15.2777C16.2815 15.2786 16.2885 15.2812 16.2943 15.2852C16.3576 15.3309 16.424 15.3765 16.4905 15.4201C16.4959 15.4235 16.5002 15.4281 16.5031 15.4334C16.5059 15.4386 16.5073 15.4444 16.507 15.4502C16.5067 15.4561 16.5047 15.4617 16.5013 15.4667C16.4978 15.4717 16.4931 15.4759 16.4873 15.4789C16.1718 15.6398 15.8413 15.7772 15.4995 15.8898C15.494 15.8915 15.4891 15.8943 15.485 15.8979C15.4809 15.9015 15.4777 15.9058 15.4757 15.9106C15.4739 15.9152 15.4732 15.9201 15.4736 15.9249C15.474 15.9298 15.4755 15.9346 15.4781 15.9389C15.6679 16.2606 15.8854 16.5677 16.1243 16.8582C16.1291 16.8643 16.136 16.8688 16.144 16.8711C16.1519 16.8735 16.1606 16.8736 16.1686 16.8714C17.3066 16.5663 18.3767 16.0938 19.333 15.4741C19.3378 15.4712 19.3418 15.4674 19.3447 15.4629C19.3475 15.4585 19.3492 15.4536 19.3496 15.4485C19.6138 13.0613 18.9075 10.9874 17.4783 9.1495C17.4769 9.14646 17.4747 9.14372 17.472 9.14146C17.4693 9.13919 17.4661 9.13745 17.4625 9.13635ZM10.9786 14.1909C10.3546 14.1909 9.84131 13.6901 9.84131 13.0758C9.84131 12.4608 10.3451 11.96 10.9786 11.96C11.6169 11.96 12.1255 12.465 12.116 13.0758C12.116 13.6901 11.6122 14.1909 10.9786 14.1909ZM15.1831 14.1909C14.5599 14.1909 14.0458 13.6901 14.0458 13.0758C14.0458 12.4608 14.5496 11.96 15.1831 11.96C15.8214 11.96 16.3307 12.465 16.3204 13.0758C16.3204 13.6901 15.8214 14.1909 15.1831 14.1909Z" fill="#090909"/>
</svg>
