<svg width="26" height="26" viewBox="0 0 26 26" fill="none" xmlns="http://www.w3.org/2000/svg">
<rect width="26" height="26" rx="13" fill="#8B8B8B"/>
<path d="M17.272 7.768C17.0821 7.768 16.8965 7.8243 16.7387 7.92979C16.5808 8.03528 16.4577 8.18521 16.3851 8.36062C16.3124 8.53604 16.2934 8.72906 16.3304 8.91529C16.3675 9.10151 16.4589 9.27256 16.5932 9.40682C16.7274 9.54108 16.8985 9.63251 17.0847 9.66955C17.2709 9.7066 17.464 9.68758 17.6394 9.61492C17.8148 9.54226 17.9647 9.41922 18.0702 9.26135C18.1757 9.10348 18.232 8.91787 18.232 8.728C18.232 8.47339 18.1309 8.22921 17.9508 8.04918C17.7708 7.86914 17.5266 7.768 17.272 7.768ZM20.952 9.704C20.9364 9.04024 20.8121 8.38352 20.584 7.76C20.3806 7.22651 20.064 6.74342 19.656 6.344C19.2599 5.93394 18.7756 5.61934 18.24 5.424C17.6181 5.18893 16.9607 5.06177 16.296 5.048C15.448 5 15.176 5 13 5C10.824 5 10.552 5 9.704 5.048C9.03932 5.06177 8.38187 5.18893 7.76 5.424C7.22534 5.62132 6.74155 5.93565 6.344 6.344C5.93394 6.74014 5.61934 7.22435 5.424 7.76C5.18893 8.38187 5.06177 9.03932 5.048 9.704C5 10.552 5 10.824 5 13C5 15.176 5 15.448 5.048 16.296C5.06177 16.9607 5.18893 17.6181 5.424 18.24C5.61934 18.7756 5.93394 19.2599 6.344 19.656C6.74155 20.0644 7.22534 20.3787 7.76 20.576C8.38187 20.8111 9.03932 20.9382 9.704 20.952C10.552 21 10.824 21 13 21C15.176 21 15.448 21 16.296 20.952C16.9607 20.9382 17.6181 20.8111 18.24 20.576C18.7756 20.3807 19.2599 20.0661 19.656 19.656C20.0658 19.2581 20.3827 18.7746 20.584 18.24C20.8121 17.6165 20.9364 16.9598 20.952 16.296C20.952 15.448 21 15.176 21 13C21 10.824 21 10.552 20.952 9.704ZM19.512 16.2C19.5062 16.7078 19.4142 17.211 19.24 17.688C19.1123 18.0362 18.9071 18.3507 18.64 18.608C18.3805 18.8724 18.0666 19.0771 17.72 19.208C17.243 19.3822 16.7398 19.4742 16.232 19.48C15.432 19.52 15.136 19.528 13.032 19.528C10.928 19.528 10.632 19.528 9.832 19.48C9.30471 19.4899 8.77968 19.4087 8.28 19.24C7.94863 19.1025 7.64908 18.8982 7.4 18.64C7.13447 18.383 6.93187 18.0682 6.808 17.72C6.61269 17.2361 6.50435 16.7216 6.488 16.2C6.488 15.4 6.44 15.104 6.44 13C6.44 10.896 6.44 10.6 6.488 9.8C6.49159 9.28084 6.58636 8.76636 6.768 8.28C6.90884 7.94233 7.12501 7.64133 7.4 7.4C7.64305 7.12493 7.94343 6.90648 8.28 6.76C8.76764 6.58403 9.2816 6.49206 9.8 6.488C10.6 6.488 10.896 6.44 13 6.44C15.104 6.44 15.4 6.44 16.2 6.488C16.7078 6.49382 17.211 6.5858 17.688 6.76C18.0515 6.89492 18.3778 7.11428 18.64 7.4C18.9022 7.64574 19.107 7.94619 19.24 8.28C19.4178 8.76715 19.5098 9.28142 19.512 9.8C19.552 10.6 19.56 10.896 19.56 13C19.56 15.104 19.552 15.4 19.512 16.2ZM13 8.896C12.1886 8.89758 11.396 9.13962 10.7221 9.59153C10.0483 10.0434 9.5235 10.685 9.21411 11.435C8.90471 12.185 8.82458 13.01 8.98384 13.8055C9.14309 14.6011 9.53459 15.3316 10.1089 15.9048C10.6831 16.4779 11.4144 16.868 12.2103 17.0257C13.0062 17.1834 13.8309 17.1017 14.5804 16.7908C15.3298 16.48 15.9703 15.954 16.4209 15.2792C16.8715 14.6045 17.112 13.8114 17.112 13C17.1131 12.4601 17.0074 11.9253 16.801 11.4264C16.5946 10.9274 16.2916 10.4742 15.9095 10.0928C15.5273 9.71143 15.0736 9.40934 14.5742 9.20394C14.0749 8.99854 13.5399 8.89389 13 8.896ZM13 15.664C12.4731 15.664 11.9581 15.5078 11.52 15.215C11.0819 14.9223 10.7404 14.5063 10.5388 14.0195C10.3372 13.5327 10.2844 12.997 10.3872 12.4803C10.49 11.9635 10.7437 11.4888 11.1163 11.1163C11.4888 10.7437 11.9635 10.49 12.4803 10.3872C12.997 10.2844 13.5327 10.3372 14.0195 10.5388C14.5063 10.7404 14.9223 11.0819 15.215 11.52C15.5078 11.9581 15.664 12.4731 15.664 13C15.664 13.3498 15.5951 13.6963 15.4612 14.0195C15.3273 14.3427 15.1311 14.6364 14.8837 14.8837C14.6364 15.1311 14.3427 15.3273 14.0195 15.4612C13.6963 15.5951 13.3498 15.664 13 15.664Z" fill="#2F2F2F"/>
</svg>
