<svg width="32" height="32" viewBox="0 0 32 32" fill="none" xmlns="http://www.w3.org/2000/svg">
<g clip-path="url(#clip0_2001_593)">
<mask id="mask0_2001_593" style="mask-type:luminance" maskUnits="userSpaceOnUse" x="0" y="0" width="32" height="32">
<path d="M31.9865 0.00012207H0V31.9866H31.9865V0.00012207Z" fill="white"/>
</mask>
<g mask="url(#mask0_2001_593)">
<path d="M22.6573 7.08654C23.8902 6.86397 25.1816 6.73469 26.597 6.68671C27.354 6.66139 27.9884 7.26113 27.9884 8.01815V23.7942C27.9884 24.5165 27.4113 25.1136 26.6903 25.1243C22.5694 25.1869 19.4667 25.9466 15.9935 27.9884C12.5203 25.9466 9.41759 25.1869 5.29665 25.1256C4.57563 25.1149 3.99854 24.5165 3.99854 23.7942V8.01815C3.99854 7.27313 4.61028 6.66138 5.35396 6.68537C9.44691 6.81732 12.5363 7.58766 15.9935 9.52418" stroke="#111827" stroke-width="2.66554" stroke-linecap="round" stroke-linejoin="round"/>
<path d="M22.6575 20.3089V4.01445C22.6575 3.04286 21.6366 2.36448 20.769 2.8003C18.4286 3.97314 16.4561 6.35747 15.9937 8.81243V27.9884C16.5214 25.1909 19.007 22.4853 21.7659 21.5591C22.3017 21.3791 22.6575 20.874 22.6575 20.3089Z" stroke="#111827" stroke-width="2.66554" stroke-linecap="round" stroke-linejoin="round"/>
</g>
</g>
<defs>
<clipPath id="clip0_2001_593">
<rect width="31.9865" height="31.9865" fill="white"/>
</clipPath>
</defs>
</svg>
