<svg width="11" height="12" viewBox="0 0 11 12" fill="none" xmlns="http://www.w3.org/2000/svg">
<g clip-path="url(#clip0_2003_530)">
<path fill-rule="evenodd" clip-rule="evenodd" d="M0 5.58525C0 4.10395 0.577745 2.68332 1.60614 1.63588C2.63453 0.588444 4.02933 0 5.4837 0C6.93806 0 8.33286 0.588444 9.36125 1.63588C10.3896 2.68332 10.9674 4.10395 10.9674 5.58525C10.9674 7.06655 10.3896 8.48717 9.36125 9.53461C8.33286 10.582 6.93806 11.1705 5.4837 11.1705C4.02933 11.1705 2.63453 10.582 1.60614 9.53461C0.577745 8.48717 0 7.06655 0 5.58525H0ZM5.17076 7.97573L8.32791 3.95584L7.7576 3.49115L5.06547 6.91751L3.15861 5.29928L2.69067 5.87121L5.17076 7.97648V7.97573Z" fill="#011C2A"/>
</g>
<defs>
<clipPath id="clip0_2003_530">
<rect width="10.9674" height="11.1705" fill="white"/>
</clipPath>
</defs>
</svg>
