<svg width="9" height="13" viewBox="0 0 9 13" fill="none" xmlns="http://www.w3.org/2000/svg">
<path d="M7.23214 0H1.76786C0.793928 0 0 0.627148 0 1.39648V11.6035C0 12.3729 0.793928 13 1.76786 13H7.23214C8.20607 13 9 12.3729 9 11.6035V1.39648C9 0.627148 8.20929 0 7.23214 0ZM3.83464 0.573828H5.19107C5.34857 0.573828 5.47393 0.688086 5.47393 0.827734C5.47393 0.967383 5.34857 1.08164 5.19107 1.08164H3.83464C3.67714 1.08164 3.55179 0.967383 3.55179 0.827734C3.55179 0.688086 3.67714 0.573828 3.83464 0.573828ZM2.55214 0.535742C2.75464 0.535742 2.92179 0.665234 2.92179 0.827734C2.92179 0.990234 2.75464 1.11719 2.55214 1.11719C2.34964 1.11719 2.1825 0.987695 2.1825 0.825195C2.1825 0.662695 2.34643 0.535742 2.55214 0.535742ZM4.51286 12.1139C4.185 12.1139 3.92143 11.9057 3.92143 11.6467C3.92143 11.3877 4.185 11.1795 4.51286 11.1795C4.84071 11.1795 5.10429 11.3877 5.10429 11.6467C5.10429 11.9057 4.84071 12.1139 4.51286 12.1139ZM7.97143 10.9053H1.03179V1.69102H7.97143V10.9053Z" fill="white"/>
</svg>
