<svg width="26" height="26" viewBox="0 0 26 26" fill="none" xmlns="http://www.w3.org/2000/svg">
<rect width="26" height="26" rx="13" fill="#8B8B8B"/>
<path d="M21 7.67729C20.3611 7.9577 19.6854 8.14306 18.994 8.22762C19.7234 7.78678 20.2701 7.09324 20.5325 6.27568C19.847 6.68848 19.0966 6.97932 18.314 7.13557C17.7909 6.56165 17.0942 6.17963 16.3333 6.0494C15.5725 5.91918 14.7904 6.04812 14.1097 6.416C13.4291 6.78389 12.8884 7.36991 12.5725 8.08216C12.2565 8.79441 12.1832 9.5926 12.364 10.3515C10.978 10.2806 9.62228 9.91554 8.38486 9.28C7.14744 8.64447 6.05602 7.7527 5.1815 6.66263C4.87477 7.2045 4.71359 7.81816 4.714 8.44259C4.71291 9.02248 4.85358 9.59365 5.12349 10.1052C5.3934 10.6168 5.78417 11.053 6.261 11.3748C5.70678 11.3595 5.1644 11.2091 4.68 10.9363V10.9793C4.68415 11.7918 4.9656 12.5779 5.47672 13.2046C5.98784 13.8314 6.69727 14.2603 7.485 14.4188C7.18177 14.5122 6.86694 14.5614 6.55 14.565C6.33061 14.5624 6.11176 14.5423 5.8955 14.5048C6.11982 15.2037 6.55393 15.8145 7.13741 16.2522C7.7209 16.6899 8.42474 16.9327 9.151 16.9469C7.92462 17.9231 6.4105 18.4558 4.85 18.4603C4.56587 18.4612 4.28198 18.444 4 18.4087C5.59326 19.4494 7.44999 20.0018 9.3465 19.9995C10.6552 20.0132 11.9536 19.763 13.1656 19.2635C14.3777 18.7639 15.4793 18.0251 16.4059 17.09C17.3326 16.155 18.0658 15.0426 18.5627 13.8177C19.0596 12.5928 19.3102 11.28 19.3 9.95599C19.3 9.80981 19.3 9.65503 19.3 9.50025C19.967 8.99706 20.5423 8.38019 21 7.67729Z" fill="#2F2F2F"/>
</svg>
